<mxfile host="app.diagrams.net" modified="2023-08-03T09:44:35.856Z" agent="Mozilla/5.0 (Windows NT 10.0; Win64; x64) AppleWebKit/537.36 (KHTML, like Gecko) Chrome/115.0.0.0 Safari/537.36" etag="OG9nqqnwEpiUvWJQQJjF" version="21.6.2" type="device">
  <diagram name="페이지-1" id="-TecIWNmmm6fbVxseDir">
    <mxGraphModel dx="1247" dy="652" grid="1" gridSize="10" guides="1" tooltips="1" connect="1" arrows="1" fold="1" page="1" pageScale="1" pageWidth="827" pageHeight="1169" math="0" shadow="0">
      <root>
        <mxCell id="0" />
        <mxCell id="1" parent="0" />
        <mxCell id="GIqwlSmdAhQBk12k91S7-240" value="" style="rounded=0;whiteSpace=wrap;html=1;fontStyle=0" vertex="1" parent="1">
          <mxGeometry x="90" y="70" width="950" height="690" as="geometry" />
        </mxCell>
        <mxCell id="GIqwlSmdAhQBk12k91S7-226" value="" style="edgeStyle=orthogonalEdgeStyle;rounded=0;orthogonalLoop=1;jettySize=auto;html=1;" edge="1" parent="1" source="GIqwlSmdAhQBk12k91S7-7">
          <mxGeometry relative="1" as="geometry">
            <mxPoint x="250" y="180" as="targetPoint" />
          </mxGeometry>
        </mxCell>
        <mxCell id="GIqwlSmdAhQBk12k91S7-7" value="회원가입 페이지로 이동한다." style="ellipse;whiteSpace=wrap;html=1;" vertex="1" parent="1">
          <mxGeometry x="160" y="110" width="180" height="50" as="geometry" />
        </mxCell>
        <mxCell id="GIqwlSmdAhQBk12k91S7-214" style="edgeStyle=orthogonalEdgeStyle;rounded=0;orthogonalLoop=1;jettySize=auto;html=1;exitX=0.5;exitY=0;exitDx=0;exitDy=0;exitPerimeter=0;" edge="1" parent="1" source="GIqwlSmdAhQBk12k91S7-11">
          <mxGeometry relative="1" as="geometry">
            <mxPoint x="45" y="220" as="targetPoint" />
          </mxGeometry>
        </mxCell>
        <mxCell id="GIqwlSmdAhQBk12k91S7-223" style="edgeStyle=orthogonalEdgeStyle;rounded=0;orthogonalLoop=1;jettySize=auto;html=1;" edge="1" parent="1" source="GIqwlSmdAhQBk12k91S7-11" target="GIqwlSmdAhQBk12k91S7-218">
          <mxGeometry relative="1" as="geometry" />
        </mxCell>
        <mxCell id="GIqwlSmdAhQBk12k91S7-11" value="Member" style="shape=umlActor;verticalLabelPosition=bottom;verticalAlign=top;html=1;outlineConnect=0;fillColor=#fa6800;strokeColor=#C73500;fontColor=#000000;" vertex="1" parent="1">
          <mxGeometry x="30" y="330" width="30" height="70" as="geometry" />
        </mxCell>
        <mxCell id="GIqwlSmdAhQBk12k91S7-12" value="User" style="shape=umlActor;verticalLabelPosition=bottom;verticalAlign=top;html=1;outlineConnect=0;" vertex="1" parent="1">
          <mxGeometry x="30" y="110" width="30" height="60" as="geometry" />
        </mxCell>
        <mxCell id="GIqwlSmdAhQBk12k91S7-229" value="" style="edgeStyle=orthogonalEdgeStyle;rounded=0;orthogonalLoop=1;jettySize=auto;html=1;" edge="1" parent="1" source="GIqwlSmdAhQBk12k91S7-216">
          <mxGeometry relative="1" as="geometry">
            <mxPoint x="250" y="260" as="targetPoint" />
          </mxGeometry>
        </mxCell>
        <mxCell id="GIqwlSmdAhQBk12k91S7-216" value="약관에 동의한다." style="ellipse;whiteSpace=wrap;html=1;" vertex="1" parent="1">
          <mxGeometry x="160" y="190" width="180" height="50" as="geometry" />
        </mxCell>
        <mxCell id="GIqwlSmdAhQBk12k91S7-231" value="" style="edgeStyle=orthogonalEdgeStyle;rounded=0;orthogonalLoop=1;jettySize=auto;html=1;" edge="1" parent="1" source="GIqwlSmdAhQBk12k91S7-217" target="GIqwlSmdAhQBk12k91S7-218">
          <mxGeometry relative="1" as="geometry" />
        </mxCell>
        <mxCell id="GIqwlSmdAhQBk12k91S7-217" value="회원정보를 입력한다." style="ellipse;whiteSpace=wrap;html=1;" vertex="1" parent="1">
          <mxGeometry x="160" y="270" width="180" height="50" as="geometry" />
        </mxCell>
        <mxCell id="GIqwlSmdAhQBk12k91S7-232" value="" style="edgeStyle=orthogonalEdgeStyle;rounded=0;orthogonalLoop=1;jettySize=auto;html=1;" edge="1" parent="1" source="GIqwlSmdAhQBk12k91S7-218" target="GIqwlSmdAhQBk12k91S7-224">
          <mxGeometry relative="1" as="geometry" />
        </mxCell>
        <mxCell id="GIqwlSmdAhQBk12k91S7-218" value="로그인 페이지로 이동한다." style="ellipse;whiteSpace=wrap;html=1;" vertex="1" parent="1">
          <mxGeometry x="160" y="340" width="180" height="50" as="geometry" />
        </mxCell>
        <mxCell id="GIqwlSmdAhQBk12k91S7-224" value="로그인 정보를 입력한다." style="ellipse;whiteSpace=wrap;html=1;" vertex="1" parent="1">
          <mxGeometry x="160" y="420" width="180" height="50" as="geometry" />
        </mxCell>
        <mxCell id="GIqwlSmdAhQBk12k91S7-233" value="게시판 글 목록 페이지로 이동한다." style="ellipse;whiteSpace=wrap;html=1;" vertex="1" parent="1">
          <mxGeometry x="160" y="550" width="220" height="50" as="geometry" />
        </mxCell>
        <mxCell id="GIqwlSmdAhQBk12k91S7-234" value="" style="endArrow=classic;html=1;rounded=0;entryX=0.169;entryY=0.067;entryDx=0;entryDy=0;entryPerimeter=0;" edge="1" parent="1" source="GIqwlSmdAhQBk12k91S7-11" target="GIqwlSmdAhQBk12k91S7-233">
          <mxGeometry width="50" height="50" relative="1" as="geometry">
            <mxPoint x="230" y="620" as="sourcePoint" />
            <mxPoint x="280" y="570" as="targetPoint" />
          </mxGeometry>
        </mxCell>
        <mxCell id="GIqwlSmdAhQBk12k91S7-235" value="해당 글의 내용을 수정한다." style="ellipse;whiteSpace=wrap;html=1;" vertex="1" parent="1">
          <mxGeometry x="500" y="584.5" width="180" height="50" as="geometry" />
        </mxCell>
        <mxCell id="GIqwlSmdAhQBk12k91S7-236" value="상세 글보기로 이동한다." style="ellipse;whiteSpace=wrap;html=1;" vertex="1" parent="1">
          <mxGeometry x="500" y="520" width="180" height="50" as="geometry" />
        </mxCell>
        <mxCell id="GIqwlSmdAhQBk12k91S7-237" value="상세 글보기로 이동한다." style="ellipse;whiteSpace=wrap;html=1;" vertex="1" parent="1">
          <mxGeometry x="500" y="457" width="180" height="50" as="geometry" />
        </mxCell>
        <mxCell id="GIqwlSmdAhQBk12k91S7-238" value="본인이 작성한 글을 삭제한다." style="ellipse;whiteSpace=wrap;html=1;" vertex="1" parent="1">
          <mxGeometry x="500" y="650" width="180" height="50" as="geometry" />
        </mxCell>
        <mxCell id="GIqwlSmdAhQBk12k91S7-241" style="edgeStyle=orthogonalEdgeStyle;rounded=0;orthogonalLoop=1;jettySize=auto;html=1;" edge="1" parent="1">
          <mxGeometry relative="1" as="geometry">
            <mxPoint x="60" y="134.5" as="sourcePoint" />
            <mxPoint x="160" y="134.5" as="targetPoint" />
          </mxGeometry>
        </mxCell>
        <mxCell id="GIqwlSmdAhQBk12k91S7-242" value="administrator" style="shape=umlActor;verticalLabelPosition=bottom;verticalAlign=top;html=1;outlineConnect=0;" vertex="1" parent="1">
          <mxGeometry x="1080" y="265" width="30" height="60" as="geometry" />
        </mxCell>
        <mxCell id="GIqwlSmdAhQBk12k91S7-244" value="" style="endArrow=classic;html=1;rounded=0;entryX=0;entryY=0.5;entryDx=0;entryDy=0;exitX=1;exitY=0.5;exitDx=0;exitDy=0;" edge="1" parent="1" source="GIqwlSmdAhQBk12k91S7-233" target="GIqwlSmdAhQBk12k91S7-237">
          <mxGeometry width="50" height="50" relative="1" as="geometry">
            <mxPoint x="380" y="550" as="sourcePoint" />
            <mxPoint x="430" y="500" as="targetPoint" />
          </mxGeometry>
        </mxCell>
        <mxCell id="GIqwlSmdAhQBk12k91S7-248" value="&amp;lt;extend&amp;gt;" style="edgeLabel;html=1;align=center;verticalAlign=middle;resizable=0;points=[];rotation=-45;" vertex="1" connectable="0" parent="GIqwlSmdAhQBk12k91S7-244">
          <mxGeometry x="0.0135" y="1" relative="1" as="geometry">
            <mxPoint x="-9" y="-5" as="offset" />
          </mxGeometry>
        </mxCell>
        <mxCell id="GIqwlSmdAhQBk12k91S7-245" value="" style="endArrow=classic;html=1;rounded=0;exitX=1;exitY=0.5;exitDx=0;exitDy=0;entryX=0;entryY=0.5;entryDx=0;entryDy=0;" edge="1" parent="1" source="GIqwlSmdAhQBk12k91S7-233" target="GIqwlSmdAhQBk12k91S7-238">
          <mxGeometry width="50" height="50" relative="1" as="geometry">
            <mxPoint x="700" y="650" as="sourcePoint" />
            <mxPoint x="750" y="600" as="targetPoint" />
          </mxGeometry>
        </mxCell>
        <mxCell id="GIqwlSmdAhQBk12k91S7-251" value="&amp;lt;extend&amp;gt;" style="edgeLabel;html=1;align=center;verticalAlign=middle;resizable=0;points=[];rotation=40;" vertex="1" connectable="0" parent="GIqwlSmdAhQBk12k91S7-245">
          <mxGeometry x="-0.0667" y="-3" relative="1" as="geometry">
            <mxPoint x="16" as="offset" />
          </mxGeometry>
        </mxCell>
        <mxCell id="GIqwlSmdAhQBk12k91S7-246" value="" style="endArrow=classic;html=1;rounded=0;entryX=0;entryY=0.5;entryDx=0;entryDy=0;exitX=1;exitY=0.5;exitDx=0;exitDy=0;" edge="1" parent="1" source="GIqwlSmdAhQBk12k91S7-233" target="GIqwlSmdAhQBk12k91S7-236">
          <mxGeometry width="50" height="50" relative="1" as="geometry">
            <mxPoint x="390" y="585" as="sourcePoint" />
            <mxPoint x="470" y="492" as="targetPoint" />
          </mxGeometry>
        </mxCell>
        <mxCell id="GIqwlSmdAhQBk12k91S7-249" value="&amp;lt;extend&amp;gt;" style="edgeLabel;html=1;align=center;verticalAlign=middle;resizable=0;points=[];rotation=-15;" vertex="1" connectable="0" parent="GIqwlSmdAhQBk12k91S7-246">
          <mxGeometry x="0.1106" y="3" relative="1" as="geometry">
            <mxPoint x="4" y="-10" as="offset" />
          </mxGeometry>
        </mxCell>
        <mxCell id="GIqwlSmdAhQBk12k91S7-247" value="" style="endArrow=classic;html=1;rounded=0;entryX=0;entryY=0.5;entryDx=0;entryDy=0;exitX=1;exitY=0.5;exitDx=0;exitDy=0;" edge="1" parent="1" source="GIqwlSmdAhQBk12k91S7-233" target="GIqwlSmdAhQBk12k91S7-235">
          <mxGeometry width="50" height="50" relative="1" as="geometry">
            <mxPoint x="390" y="585" as="sourcePoint" />
            <mxPoint x="470" y="555" as="targetPoint" />
          </mxGeometry>
        </mxCell>
        <mxCell id="GIqwlSmdAhQBk12k91S7-250" value="&amp;lt;extend&amp;gt;" style="edgeLabel;html=1;align=center;verticalAlign=middle;resizable=0;points=[];rotation=20;" vertex="1" connectable="0" parent="GIqwlSmdAhQBk12k91S7-247">
          <mxGeometry x="0.1323" relative="1" as="geometry">
            <mxPoint y="-10" as="offset" />
          </mxGeometry>
        </mxCell>
        <mxCell id="GIqwlSmdAhQBk12k91S7-253" value="회원강퇴" style="ellipse;whiteSpace=wrap;html=1;" vertex="1" parent="1">
          <mxGeometry x="370" y="150" width="140" height="40" as="geometry" />
        </mxCell>
        <mxCell id="GIqwlSmdAhQBk12k91S7-255" value="회원관리" style="ellipse;whiteSpace=wrap;html=1;fillColor=#0050ef;fontColor=#ffffff;strokeColor=#001DBC;" vertex="1" parent="1">
          <mxGeometry x="550" y="270" width="180" height="50" as="geometry" />
        </mxCell>
        <mxCell id="GIqwlSmdAhQBk12k91S7-256" value="회원목록" style="ellipse;whiteSpace=wrap;html=1;" vertex="1" parent="1">
          <mxGeometry x="540" y="150" width="140" height="40" as="geometry" />
        </mxCell>
        <mxCell id="GIqwlSmdAhQBk12k91S7-257" value="" style="endArrow=classic;html=1;rounded=0;exitX=0;exitY=0.5;exitDx=0;exitDy=0;entryX=0.5;entryY=1;entryDx=0;entryDy=0;" edge="1" parent="1" source="GIqwlSmdAhQBk12k91S7-255" target="GIqwlSmdAhQBk12k91S7-256">
          <mxGeometry width="50" height="50" relative="1" as="geometry">
            <mxPoint x="700" y="380" as="sourcePoint" />
            <mxPoint x="750" y="330" as="targetPoint" />
          </mxGeometry>
        </mxCell>
        <mxCell id="GIqwlSmdAhQBk12k91S7-277" value="&amp;lt;include&amp;gt;" style="edgeLabel;html=1;align=center;verticalAlign=middle;resizable=0;points=[];rotation=-60;" vertex="1" connectable="0" parent="GIqwlSmdAhQBk12k91S7-257">
          <mxGeometry x="0.1402" y="1" relative="1" as="geometry">
            <mxPoint x="-10" y="-4" as="offset" />
          </mxGeometry>
        </mxCell>
        <mxCell id="GIqwlSmdAhQBk12k91S7-258" value="" style="endArrow=classic;html=1;rounded=0;exitX=0;exitY=0.5;exitDx=0;exitDy=0;entryX=0.5;entryY=1;entryDx=0;entryDy=0;" edge="1" parent="1" source="GIqwlSmdAhQBk12k91S7-255" target="GIqwlSmdAhQBk12k91S7-253">
          <mxGeometry width="50" height="50" relative="1" as="geometry">
            <mxPoint x="490" y="295" as="sourcePoint" />
            <mxPoint x="550" y="230" as="targetPoint" />
          </mxGeometry>
        </mxCell>
        <mxCell id="GIqwlSmdAhQBk12k91S7-278" value="&amp;lt;include&amp;gt;" style="edgeLabel;html=1;align=center;verticalAlign=middle;resizable=0;points=[];rotation=45;" vertex="1" connectable="0" parent="GIqwlSmdAhQBk12k91S7-258">
          <mxGeometry x="0.005" y="-1" relative="1" as="geometry">
            <mxPoint x="2" y="-9" as="offset" />
          </mxGeometry>
        </mxCell>
        <mxCell id="GIqwlSmdAhQBk12k91S7-259" value="" style="endArrow=classic;html=1;rounded=0;exitX=0;exitY=0.5;exitDx=0;exitDy=0;" edge="1" parent="1" source="GIqwlSmdAhQBk12k91S7-255" target="GIqwlSmdAhQBk12k91S7-217">
          <mxGeometry width="50" height="50" relative="1" as="geometry">
            <mxPoint x="560" y="305" as="sourcePoint" />
            <mxPoint x="450" y="240" as="targetPoint" />
          </mxGeometry>
        </mxCell>
        <mxCell id="GIqwlSmdAhQBk12k91S7-279" value="&amp;lt;include&amp;gt;" style="edgeLabel;html=1;align=center;verticalAlign=middle;resizable=0;points=[];" vertex="1" connectable="0" parent="GIqwlSmdAhQBk12k91S7-259">
          <mxGeometry x="0.0762" y="3" relative="1" as="geometry">
            <mxPoint y="-11" as="offset" />
          </mxGeometry>
        </mxCell>
        <mxCell id="GIqwlSmdAhQBk12k91S7-260" value="" style="endArrow=classic;html=1;rounded=0;exitX=0;exitY=0.5;exitDx=0;exitDy=0;entryX=1;entryY=0.5;entryDx=0;entryDy=0;" edge="1" parent="1" source="GIqwlSmdAhQBk12k91S7-255" target="GIqwlSmdAhQBk12k91S7-224">
          <mxGeometry width="50" height="50" relative="1" as="geometry">
            <mxPoint x="560" y="305" as="sourcePoint" />
            <mxPoint x="350" y="305" as="targetPoint" />
          </mxGeometry>
        </mxCell>
        <mxCell id="GIqwlSmdAhQBk12k91S7-280" value="&amp;lt;include&amp;gt;" style="edgeLabel;html=1;align=center;verticalAlign=middle;resizable=0;points=[];rotation=-35;" vertex="1" connectable="0" parent="GIqwlSmdAhQBk12k91S7-260">
          <mxGeometry x="0.0085" y="1" relative="1" as="geometry">
            <mxPoint x="-1" y="-14" as="offset" />
          </mxGeometry>
        </mxCell>
        <mxCell id="GIqwlSmdAhQBk12k91S7-261" value="게시판관리" style="ellipse;whiteSpace=wrap;html=1;fillColor=#0050ef;fontColor=#ffffff;strokeColor=#001DBC;" vertex="1" parent="1">
          <mxGeometry x="800" y="550" width="180" height="50" as="geometry" />
        </mxCell>
        <mxCell id="GIqwlSmdAhQBk12k91S7-262" value="" style="endArrow=classic;html=1;rounded=0;entryX=1;entryY=0.5;entryDx=0;entryDy=0;" edge="1" parent="1" target="GIqwlSmdAhQBk12k91S7-261">
          <mxGeometry width="50" height="50" relative="1" as="geometry">
            <mxPoint x="1080" y="300" as="sourcePoint" />
            <mxPoint x="350" y="455" as="targetPoint" />
          </mxGeometry>
        </mxCell>
        <mxCell id="GIqwlSmdAhQBk12k91S7-263" value="" style="endArrow=classic;html=1;rounded=0;entryX=1;entryY=0.5;entryDx=0;entryDy=0;exitX=0;exitY=0.5;exitDx=0;exitDy=0;" edge="1" parent="1" source="GIqwlSmdAhQBk12k91S7-261" target="GIqwlSmdAhQBk12k91S7-236">
          <mxGeometry width="50" height="50" relative="1" as="geometry">
            <mxPoint x="1090" y="230" as="sourcePoint" />
            <mxPoint x="970" y="492" as="targetPoint" />
          </mxGeometry>
        </mxCell>
        <mxCell id="GIqwlSmdAhQBk12k91S7-271" value="&amp;lt;include&amp;gt;" style="edgeLabel;html=1;align=center;verticalAlign=middle;resizable=0;points=[];rotation=15;" vertex="1" connectable="0" parent="GIqwlSmdAhQBk12k91S7-263">
          <mxGeometry x="0.2845" y="-1" relative="1" as="geometry">
            <mxPoint y="-8" as="offset" />
          </mxGeometry>
        </mxCell>
        <mxCell id="GIqwlSmdAhQBk12k91S7-265" value="" style="endArrow=classic;html=1;rounded=0;entryX=1;entryY=0.5;entryDx=0;entryDy=0;exitX=0;exitY=0.5;exitDx=0;exitDy=0;" edge="1" parent="1" source="GIqwlSmdAhQBk12k91S7-261" target="GIqwlSmdAhQBk12k91S7-235">
          <mxGeometry width="50" height="50" relative="1" as="geometry">
            <mxPoint x="810" y="585" as="sourcePoint" />
            <mxPoint x="690" y="555" as="targetPoint" />
          </mxGeometry>
        </mxCell>
        <mxCell id="GIqwlSmdAhQBk12k91S7-272" value="&amp;lt;include&amp;gt;" style="edgeLabel;html=1;align=center;verticalAlign=middle;resizable=0;points=[];rotation=-15;" vertex="1" connectable="0" parent="GIqwlSmdAhQBk12k91S7-265">
          <mxGeometry x="0.207" y="4" relative="1" as="geometry">
            <mxPoint y="-13" as="offset" />
          </mxGeometry>
        </mxCell>
        <mxCell id="GIqwlSmdAhQBk12k91S7-266" value="" style="endArrow=classic;html=1;rounded=0;entryX=1;entryY=0.5;entryDx=0;entryDy=0;exitX=0;exitY=0.5;exitDx=0;exitDy=0;" edge="1" parent="1" source="GIqwlSmdAhQBk12k91S7-261" target="GIqwlSmdAhQBk12k91S7-238">
          <mxGeometry width="50" height="50" relative="1" as="geometry">
            <mxPoint x="810" y="585" as="sourcePoint" />
            <mxPoint x="690" y="620" as="targetPoint" />
          </mxGeometry>
        </mxCell>
        <mxCell id="GIqwlSmdAhQBk12k91S7-273" value="&amp;lt;include&amp;gt;" style="edgeLabel;html=1;align=center;verticalAlign=middle;resizable=0;points=[];rotation=-40;" vertex="1" connectable="0" parent="GIqwlSmdAhQBk12k91S7-266">
          <mxGeometry x="0.1206" y="1" relative="1" as="geometry">
            <mxPoint x="-6" y="-8" as="offset" />
          </mxGeometry>
        </mxCell>
        <mxCell id="GIqwlSmdAhQBk12k91S7-267" value="" style="endArrow=classic;html=1;rounded=0;entryX=1;entryY=0.5;entryDx=0;entryDy=0;exitX=0;exitY=0.5;exitDx=0;exitDy=0;" edge="1" parent="1" source="GIqwlSmdAhQBk12k91S7-261" target="GIqwlSmdAhQBk12k91S7-237">
          <mxGeometry width="50" height="50" relative="1" as="geometry">
            <mxPoint x="810" y="585" as="sourcePoint" />
            <mxPoint x="690" y="685" as="targetPoint" />
          </mxGeometry>
        </mxCell>
        <mxCell id="GIqwlSmdAhQBk12k91S7-270" value="&amp;lt;include&amp;gt;" style="edgeLabel;html=1;align=center;verticalAlign=middle;resizable=0;points=[];rotation=40;" vertex="1" connectable="0" parent="GIqwlSmdAhQBk12k91S7-267">
          <mxGeometry x="0.0204" y="-3" relative="1" as="geometry">
            <mxPoint y="-7" as="offset" />
          </mxGeometry>
        </mxCell>
        <mxCell id="GIqwlSmdAhQBk12k91S7-268" value="&lt;h1&gt;Ueer Scenario(사용자 시나리오)&lt;/h1&gt;&lt;div style=&quot;&quot;&gt;&lt;b style=&quot;&quot;&gt;&lt;font style=&quot;font-size: 15px;&quot;&gt;회원기능&lt;/font&gt;&lt;/b&gt;&lt;/div&gt;&lt;div style=&quot;&quot;&gt;&lt;b style=&quot;&quot;&gt;&lt;font style=&quot;font-size: 15px;&quot;&gt;&lt;br&gt;&lt;/font&gt;&lt;/b&gt;&lt;/div&gt;&lt;div style=&quot;&quot;&gt;&lt;font style=&quot;font-size: 12px;&quot;&gt;1. 회원가입페이지로 이동한다.&lt;/font&gt;&lt;/div&gt;&lt;div style=&quot;&quot;&gt;&lt;font style=&quot;font-size: 12px;&quot;&gt;&lt;br&gt;&lt;/font&gt;&lt;/div&gt;&lt;div style=&quot;&quot;&gt;&lt;font style=&quot;font-size: 12px;&quot;&gt;2. 약관에 동의한다.&lt;/font&gt;&lt;/div&gt;&lt;div style=&quot;&quot;&gt;&lt;font style=&quot;font-size: 12px;&quot;&gt;&lt;br&gt;&lt;/font&gt;&lt;/div&gt;&lt;div style=&quot;&quot;&gt;&lt;font style=&quot;font-size: 12px;&quot;&gt;3. 회원가입 정보를 입력하고 회원가입을 하도록 한다.&lt;/font&gt;&lt;/div&gt;&lt;div style=&quot;&quot;&gt;&lt;font style=&quot;font-size: 12px;&quot;&gt;&lt;br&gt;&lt;/font&gt;&lt;/div&gt;&lt;div style=&quot;&quot;&gt;&lt;font style=&quot;font-size: 12px;&quot;&gt;&lt;br&gt;&lt;/font&gt;&lt;/div&gt;&lt;div style=&quot;&quot;&gt;&lt;font size=&quot;1&quot; style=&quot;&quot;&gt;&lt;b style=&quot;font-size: 20px;&quot;&gt;고객여정맵(Customer Journey Map)&lt;/b&gt;&lt;/font&gt;&lt;/div&gt;&lt;div style=&quot;&quot;&gt;&lt;font style=&quot;font-size: 17px;&quot;&gt;&lt;b&gt;&lt;br&gt;&lt;/b&gt;&lt;/font&gt;&lt;/div&gt;&lt;div style=&quot;font-size: 14px;&quot;&gt;&lt;font style=&quot;font-size: 14px;&quot;&gt;사용자 시나리오를 그림으로&amp;nbsp;&lt;/font&gt;&lt;span style=&quot;background-color: initial;&quot;&gt;알아보기 쉽게 설명한 그림&lt;/span&gt;&lt;/div&gt;" style="text;html=1;strokeColor=none;fillColor=none;spacing=5;spacingTop=-20;whiteSpace=wrap;overflow=hidden;rounded=0;" vertex="1" parent="1">
          <mxGeometry x="90" y="810" width="400" height="330" as="geometry" />
        </mxCell>
        <mxCell id="GIqwlSmdAhQBk12k91S7-274" value="" style="endArrow=classic;html=1;rounded=0;entryX=1;entryY=0.5;entryDx=0;entryDy=0;" edge="1" parent="1" source="GIqwlSmdAhQBk12k91S7-242" target="GIqwlSmdAhQBk12k91S7-255">
          <mxGeometry width="50" height="50" relative="1" as="geometry">
            <mxPoint x="1080" y="220" as="sourcePoint" />
            <mxPoint x="990" y="585" as="targetPoint" />
          </mxGeometry>
        </mxCell>
        <mxCell id="GIqwlSmdAhQBk12k91S7-283" value="" style="endArrow=classic;html=1;rounded=0;" edge="1" parent="1">
          <mxGeometry width="50" height="50" relative="1" as="geometry">
            <mxPoint x="635" y="823" as="sourcePoint" />
            <mxPoint x="685.0000000000005" y="823" as="targetPoint" />
          </mxGeometry>
        </mxCell>
        <mxCell id="GIqwlSmdAhQBk12k91S7-287" value="사용흐름" style="text;html=1;strokeColor=none;fillColor=none;align=center;verticalAlign=middle;whiteSpace=wrap;rounded=0;" vertex="1" parent="1">
          <mxGeometry x="712" y="810" width="60" height="30" as="geometry" />
        </mxCell>
        <mxCell id="GIqwlSmdAhQBk12k91S7-288" value="" style="ellipse;whiteSpace=wrap;html=1;" vertex="1" parent="1">
          <mxGeometry x="625" y="873" width="63" height="30" as="geometry" />
        </mxCell>
        <mxCell id="GIqwlSmdAhQBk12k91S7-289" value="기능 (사용자)&lt;br&gt;behavior" style="text;html=1;strokeColor=none;fillColor=none;align=center;verticalAlign=middle;whiteSpace=wrap;rounded=0;" vertex="1" parent="1">
          <mxGeometry x="699" y="873" width="86" height="30" as="geometry" />
        </mxCell>
        <mxCell id="GIqwlSmdAhQBk12k91S7-290" value="" style="rounded=0;whiteSpace=wrap;html=1;" vertex="1" parent="1">
          <mxGeometry x="805" y="813" width="70" height="30" as="geometry" />
        </mxCell>
        <mxCell id="GIqwlSmdAhQBk12k91S7-291" value="시스템" style="text;html=1;strokeColor=none;fillColor=none;align=center;verticalAlign=middle;whiteSpace=wrap;rounded=0;" vertex="1" parent="1">
          <mxGeometry x="895" y="810" width="60" height="30" as="geometry" />
        </mxCell>
        <mxCell id="GIqwlSmdAhQBk12k91S7-292" value="User(사용자)" style="text;html=1;strokeColor=none;fillColor=none;align=center;verticalAlign=middle;whiteSpace=wrap;rounded=0;" vertex="1" parent="1">
          <mxGeometry x="885" y="863" width="90" height="30" as="geometry" />
        </mxCell>
        <mxCell id="GIqwlSmdAhQBk12k91S7-293" value="Actor" style="shape=umlActor;verticalLabelPosition=bottom;verticalAlign=top;html=1;outlineConnect=0;" vertex="1" parent="1">
          <mxGeometry x="825" y="853" width="30" height="50" as="geometry" />
        </mxCell>
        <mxCell id="GIqwlSmdAhQBk12k91S7-294" value="&lt;h1&gt;Persona(페르소나)&lt;/h1&gt;&lt;div style=&quot;&quot;&gt;&lt;span style=&quot;font-size: 15px;&quot;&gt;&lt;b&gt;주 사용자로 여겨지는 가상 인물&lt;/b&gt;&lt;/span&gt;&lt;/div&gt;&lt;div style=&quot;&quot;&gt;&lt;span style=&quot;font-size: 15px;&quot;&gt;&lt;b&gt;&lt;br&gt;&lt;/b&gt;&lt;/span&gt;&lt;/div&gt;&lt;div style=&quot;&quot;&gt;&lt;font style=&quot;font-size: 12px;&quot;&gt;1. 이름 : 김천재&lt;/font&gt;&lt;/div&gt;&lt;div style=&quot;&quot;&gt;&lt;font style=&quot;font-size: 12px;&quot;&gt;&lt;br&gt;&lt;/font&gt;&lt;/div&gt;&lt;div style=&quot;&quot;&gt;&lt;font style=&quot;font-size: 12px;&quot;&gt;2. 직업 : 무직(학생)&lt;/font&gt;&lt;/div&gt;&lt;div style=&quot;&quot;&gt;&lt;font style=&quot;font-size: 12px;&quot;&gt;&lt;br&gt;&lt;/font&gt;&lt;/div&gt;&lt;div style=&quot;&quot;&gt;&lt;font style=&quot;font-size: 12px;&quot;&gt;3. 나이 : 9세&lt;/font&gt;&lt;/div&gt;&lt;div style=&quot;&quot;&gt;&lt;font style=&quot;font-size: 12px;&quot;&gt;&lt;br&gt;&lt;/font&gt;&lt;/div&gt;&lt;div style=&quot;&quot;&gt;4. 별명 : 재수&lt;/div&gt;&lt;div style=&quot;&quot;&gt;&lt;br&gt;&lt;/div&gt;&lt;div style=&quot;&quot;&gt;5. 성격&lt;/div&gt;&lt;div style=&quot;&quot;&gt;&lt;br&gt;&lt;/div&gt;&lt;div style=&quot;&quot;&gt;6. 라이프스타일 :&amp;nbsp;&lt;/div&gt;" style="text;html=1;strokeColor=none;fillColor=none;spacing=5;spacingTop=-20;whiteSpace=wrap;overflow=hidden;rounded=0;" vertex="1" parent="1">
          <mxGeometry x="625" y="950" width="400" height="260" as="geometry" />
        </mxCell>
        <mxCell id="GIqwlSmdAhQBk12k91S7-296" value="&lt;font style=&quot;font-size: 25px;&quot;&gt;메뉴 결정&lt;/font&gt;" style="text;html=1;strokeColor=none;fillColor=none;align=center;verticalAlign=middle;whiteSpace=wrap;rounded=0;" vertex="1" parent="1">
          <mxGeometry x="90" y="1200" width="160" height="60" as="geometry" />
        </mxCell>
        <mxCell id="GIqwlSmdAhQBk12k91S7-297" value="회사소개" style="rounded=0;whiteSpace=wrap;html=1;strokeWidth=2;fontSize=15;fontStyle=1;fontColor=#007FFF;" vertex="1" parent="1">
          <mxGeometry x="100" y="1300" width="140" height="40" as="geometry" />
        </mxCell>
        <mxCell id="GIqwlSmdAhQBk12k91S7-298" value="사업영역" style="rounded=0;whiteSpace=wrap;html=1;strokeWidth=2;fontSize=15;fontStyle=1;fontColor=#007FFF;" vertex="1" parent="1">
          <mxGeometry x="100" y="1360" width="140" height="40" as="geometry" />
        </mxCell>
        <mxCell id="GIqwlSmdAhQBk12k91S7-299" value="사회공헌" style="rounded=0;whiteSpace=wrap;html=1;strokeWidth=2;fontSize=15;fontStyle=1;fontColor=#007FFF;" vertex="1" parent="1">
          <mxGeometry x="100" y="1420" width="140" height="40" as="geometry" />
        </mxCell>
        <mxCell id="GIqwlSmdAhQBk12k91S7-300" value="커뮤니티" style="rounded=0;whiteSpace=wrap;html=1;strokeWidth=2;fontSize=15;fontStyle=1;fontColor=#FF3399;" vertex="1" parent="1">
          <mxGeometry x="100" y="1480" width="140" height="40" as="geometry" />
        </mxCell>
        <mxCell id="GIqwlSmdAhQBk12k91S7-301" value="브랜드" style="rounded=0;whiteSpace=wrap;html=1;strokeWidth=2;fontSize=15;fontStyle=1;fontColor=#007FFF;" vertex="1" parent="1">
          <mxGeometry x="100" y="1540" width="140" height="40" as="geometry" />
        </mxCell>
        <mxCell id="GIqwlSmdAhQBk12k91S7-302" value="회원" style="rounded=0;whiteSpace=wrap;html=1;strokeWidth=2;fontSize=15;fontStyle=1;fontColor=#FF3399;" vertex="1" parent="1">
          <mxGeometry x="100" y="1600" width="140" height="40" as="geometry" />
        </mxCell>
        <mxCell id="GIqwlSmdAhQBk12k91S7-303" value="관리자" style="rounded=0;whiteSpace=wrap;html=1;strokeWidth=2;fontSize=15;fontStyle=1;fontColor=#FF3399;" vertex="1" parent="1">
          <mxGeometry x="100" y="1660" width="140" height="40" as="geometry" />
        </mxCell>
        <mxCell id="GIqwlSmdAhQBk12k91S7-305" value="ㅇㄴ" style="text;html=1;strokeColor=none;fillColor=none;align=left;verticalAlign=middle;whiteSpace=wrap;rounded=0;" vertex="1" parent="1">
          <mxGeometry x="270" y="1297.5" width="460" height="45" as="geometry" />
        </mxCell>
        <mxCell id="GIqwlSmdAhQBk12k91S7-306" value="비기능적 요구사항" style="rounded=0;whiteSpace=wrap;html=1;strokeWidth=2;fontSize=15;fontStyle=1;fontColor=#007FFF;" vertex="1" parent="1">
          <mxGeometry x="100" y="1898" width="140" height="40" as="geometry" />
        </mxCell>
        <mxCell id="GIqwlSmdAhQBk12k91S7-307" value="기능적 요구사항" style="rounded=0;whiteSpace=wrap;html=1;strokeWidth=2;fontSize=15;fontStyle=1;fontColor=#FF3399;" vertex="1" parent="1">
          <mxGeometry x="100" y="1958" width="140" height="40" as="geometry" />
        </mxCell>
        <mxCell id="GIqwlSmdAhQBk12k91S7-308" value="회사소개, 사업영역, 브랜드, 커뮤니티- 공고홍보, 회원 - 약관" style="text;html=1;strokeColor=none;fillColor=none;align=left;verticalAlign=middle;whiteSpace=wrap;rounded=0;" vertex="1" parent="1">
          <mxGeometry x="270" y="1895.5" width="460" height="45" as="geometry" />
        </mxCell>
        <mxCell id="GIqwlSmdAhQBk12k91S7-309" value="회원 - 로그인, 로그아웃, 가입, 마이페이지, 정보수정&lt;br&gt;게시판 - 공지사항/묻고답하기/자주하는질문 관리, 온라인 상담" style="text;html=1;strokeColor=none;fillColor=none;align=left;verticalAlign=middle;whiteSpace=wrap;rounded=0;" vertex="1" parent="1">
          <mxGeometry x="270" y="1955.5" width="460" height="45" as="geometry" />
        </mxCell>
        <mxCell id="GIqwlSmdAhQBk12k91S7-310" value="&lt;span style=&quot;font-size: 25px;&quot;&gt;요구사항 분류&lt;/span&gt;" style="text;html=1;strokeColor=none;fillColor=none;align=center;verticalAlign=middle;whiteSpace=wrap;rounded=0;" vertex="1" parent="1">
          <mxGeometry x="90" y="1810" width="160" height="60" as="geometry" />
        </mxCell>
        <mxCell id="GIqwlSmdAhQBk12k91S7-311" value="&lt;span style=&quot;font-size: 25px;&quot;&gt;기능적 ERD&lt;/span&gt;" style="text;html=1;strokeColor=none;fillColor=none;align=center;verticalAlign=middle;whiteSpace=wrap;rounded=0;" vertex="1" parent="1">
          <mxGeometry x="90" y="2070" width="160" height="60" as="geometry" />
        </mxCell>
        <mxCell id="GIqwlSmdAhQBk12k91S7-312" value="Member" style="rounded=0;whiteSpace=wrap;html=1;fontSize=14;fontStyle=1;strokeWidth=2;" vertex="1" parent="1">
          <mxGeometry x="367.27" y="2290" width="131" height="50" as="geometry" />
        </mxCell>
        <mxCell id="GIqwlSmdAhQBk12k91S7-313" value="" style="rounded=0;whiteSpace=wrap;html=1;" vertex="1" parent="1">
          <mxGeometry x="348" y="2080" width="92" height="40" as="geometry" />
        </mxCell>
        <mxCell id="GIqwlSmdAhQBk12k91S7-314" value="" style="ellipse;whiteSpace=wrap;html=1;" vertex="1" parent="1">
          <mxGeometry x="560" y="2080" width="90" height="40" as="geometry" />
        </mxCell>
        <mxCell id="GIqwlSmdAhQBk12k91S7-315" value="Entity" style="text;html=1;strokeColor=none;fillColor=none;align=center;verticalAlign=middle;whiteSpace=wrap;rounded=0;" vertex="1" parent="1">
          <mxGeometry x="470" y="2085" width="60" height="30" as="geometry" />
        </mxCell>
        <mxCell id="GIqwlSmdAhQBk12k91S7-316" value="Attribute" style="text;html=1;strokeColor=none;fillColor=none;align=center;verticalAlign=middle;whiteSpace=wrap;rounded=0;" vertex="1" parent="1">
          <mxGeometry x="670" y="2085" width="60" height="30" as="geometry" />
        </mxCell>
        <mxCell id="GIqwlSmdAhQBk12k91S7-317" value="" style="rhombus;whiteSpace=wrap;html=1;" vertex="1" parent="1">
          <mxGeometry x="334" y="2140" width="120" height="40" as="geometry" />
        </mxCell>
        <mxCell id="GIqwlSmdAhQBk12k91S7-318" value="Relation" style="text;html=1;strokeColor=none;fillColor=none;align=center;verticalAlign=middle;whiteSpace=wrap;rounded=0;" vertex="1" parent="1">
          <mxGeometry x="470" y="2145" width="60" height="30" as="geometry" />
        </mxCell>
        <mxCell id="GIqwlSmdAhQBk12k91S7-319" value="" style="endArrow=none;html=1;rounded=0;" edge="1" parent="1">
          <mxGeometry width="50" height="50" relative="1" as="geometry">
            <mxPoint x="560" y="2160" as="sourcePoint" />
            <mxPoint x="650" y="2160" as="targetPoint" />
          </mxGeometry>
        </mxCell>
        <mxCell id="GIqwlSmdAhQBk12k91S7-320" value="Link" style="text;html=1;strokeColor=none;fillColor=none;align=center;verticalAlign=middle;whiteSpace=wrap;rounded=0;" vertex="1" parent="1">
          <mxGeometry x="672" y="2145" width="60" height="30" as="geometry" />
        </mxCell>
        <mxCell id="GIqwlSmdAhQBk12k91S7-321" value="id" style="ellipse;whiteSpace=wrap;html=1;fontStyle=4;labelBackgroundColor=none;fillColor=#008a00;fontColor=#ffffff;strokeColor=#005700;" vertex="1" parent="1">
          <mxGeometry x="220.27" y="2420" width="80" height="30" as="geometry" />
        </mxCell>
        <mxCell id="GIqwlSmdAhQBk12k91S7-322" value="pw" style="ellipse;whiteSpace=wrap;html=1;" vertex="1" parent="1">
          <mxGeometry x="308.27" y="2420" width="80" height="30" as="geometry" />
        </mxCell>
        <mxCell id="GIqwlSmdAhQBk12k91S7-323" value="name" style="ellipse;whiteSpace=wrap;html=1;" vertex="1" parent="1">
          <mxGeometry x="398.27" y="2420" width="70" height="30" as="geometry" />
        </mxCell>
        <mxCell id="GIqwlSmdAhQBk12k91S7-324" value="tel" style="ellipse;whiteSpace=wrap;html=1;" vertex="1" parent="1">
          <mxGeometry x="564.27" y="2420" width="80" height="30" as="geometry" />
        </mxCell>
        <mxCell id="GIqwlSmdAhQBk12k91S7-325" value="email" style="ellipse;whiteSpace=wrap;html=1;" vertex="1" parent="1">
          <mxGeometry x="475.27" y="2420" width="80" height="30" as="geometry" />
        </mxCell>
        <mxCell id="GIqwlSmdAhQBk12k91S7-326" value="" style="endArrow=none;html=1;rounded=0;exitX=0.5;exitY=0;exitDx=0;exitDy=0;" edge="1" parent="1" source="GIqwlSmdAhQBk12k91S7-321">
          <mxGeometry width="50" height="50" relative="1" as="geometry">
            <mxPoint x="563.27" y="2380" as="sourcePoint" />
            <mxPoint x="433.27" y="2340" as="targetPoint" />
          </mxGeometry>
        </mxCell>
        <mxCell id="GIqwlSmdAhQBk12k91S7-327" value="" style="endArrow=none;html=1;rounded=0;exitX=0.5;exitY=0;exitDx=0;exitDy=0;" edge="1" parent="1" source="GIqwlSmdAhQBk12k91S7-322">
          <mxGeometry width="50" height="50" relative="1" as="geometry">
            <mxPoint x="262.27" y="2430" as="sourcePoint" />
            <mxPoint x="433.27" y="2340" as="targetPoint" />
          </mxGeometry>
        </mxCell>
        <mxCell id="GIqwlSmdAhQBk12k91S7-328" value="" style="endArrow=none;html=1;rounded=0;exitX=0.5;exitY=0;exitDx=0;exitDy=0;" edge="1" parent="1" source="GIqwlSmdAhQBk12k91S7-325">
          <mxGeometry width="50" height="50" relative="1" as="geometry">
            <mxPoint x="353.27" y="2430" as="sourcePoint" />
            <mxPoint x="433.27" y="2340" as="targetPoint" />
          </mxGeometry>
        </mxCell>
        <mxCell id="GIqwlSmdAhQBk12k91S7-331" value="" style="endArrow=none;html=1;rounded=0;exitX=0.5;exitY=0;exitDx=0;exitDy=0;" edge="1" parent="1" source="GIqwlSmdAhQBk12k91S7-323">
          <mxGeometry width="50" height="50" relative="1" as="geometry">
            <mxPoint x="563.27" y="2380" as="sourcePoint" />
            <mxPoint x="433.27" y="2340" as="targetPoint" />
          </mxGeometry>
        </mxCell>
        <mxCell id="GIqwlSmdAhQBk12k91S7-332" value="" style="endArrow=none;html=1;rounded=0;exitX=0.464;exitY=-0.132;exitDx=0;exitDy=0;exitPerimeter=0;" edge="1" parent="1" source="GIqwlSmdAhQBk12k91S7-324">
          <mxGeometry width="50" height="50" relative="1" as="geometry">
            <mxPoint x="525.27" y="2430" as="sourcePoint" />
            <mxPoint x="433.27" y="2340" as="targetPoint" />
          </mxGeometry>
        </mxCell>
        <mxCell id="GIqwlSmdAhQBk12k91S7-333" value="Qna" style="rounded=0;whiteSpace=wrap;html=1;fontSize=14;fontStyle=1;strokeWidth=2;" vertex="1" parent="1">
          <mxGeometry x="335.5" y="2530" width="131" height="50" as="geometry" />
        </mxCell>
        <mxCell id="GIqwlSmdAhQBk12k91S7-334" value="bno" style="ellipse;whiteSpace=wrap;html=1;fillColor=#008a00;fontColor=#ffffff;strokeColor=#005700;fontStyle=4" vertex="1" parent="1">
          <mxGeometry x="188.5" y="2660" width="80" height="30" as="geometry" />
        </mxCell>
        <mxCell id="GIqwlSmdAhQBk12k91S7-335" value="title" style="ellipse;whiteSpace=wrap;html=1;" vertex="1" parent="1">
          <mxGeometry x="276.5" y="2660" width="80" height="30" as="geometry" />
        </mxCell>
        <mxCell id="GIqwlSmdAhQBk12k91S7-336" value="content" style="ellipse;whiteSpace=wrap;html=1;" vertex="1" parent="1">
          <mxGeometry x="366.5" y="2660" width="70" height="30" as="geometry" />
        </mxCell>
        <mxCell id="GIqwlSmdAhQBk12k91S7-337" value="author" style="ellipse;whiteSpace=wrap;html=1;" vertex="1" parent="1">
          <mxGeometry x="532.5" y="2660" width="80" height="30" as="geometry" />
        </mxCell>
        <mxCell id="GIqwlSmdAhQBk12k91S7-338" value="resdate" style="ellipse;whiteSpace=wrap;html=1;" vertex="1" parent="1">
          <mxGeometry x="443.5" y="2660" width="80" height="30" as="geometry" />
        </mxCell>
        <mxCell id="GIqwlSmdAhQBk12k91S7-339" value="" style="endArrow=none;html=1;rounded=0;exitX=0.5;exitY=0;exitDx=0;exitDy=0;" edge="1" parent="1" source="GIqwlSmdAhQBk12k91S7-334">
          <mxGeometry width="50" height="50" relative="1" as="geometry">
            <mxPoint x="531.5" y="2620" as="sourcePoint" />
            <mxPoint x="401.5" y="2580" as="targetPoint" />
          </mxGeometry>
        </mxCell>
        <mxCell id="GIqwlSmdAhQBk12k91S7-340" value="" style="endArrow=none;html=1;rounded=0;exitX=0.5;exitY=0;exitDx=0;exitDy=0;" edge="1" parent="1" source="GIqwlSmdAhQBk12k91S7-335">
          <mxGeometry width="50" height="50" relative="1" as="geometry">
            <mxPoint x="230.5" y="2670" as="sourcePoint" />
            <mxPoint x="401.5" y="2580" as="targetPoint" />
          </mxGeometry>
        </mxCell>
        <mxCell id="GIqwlSmdAhQBk12k91S7-341" value="" style="endArrow=none;html=1;rounded=0;exitX=0.5;exitY=0;exitDx=0;exitDy=0;" edge="1" parent="1" source="GIqwlSmdAhQBk12k91S7-338">
          <mxGeometry width="50" height="50" relative="1" as="geometry">
            <mxPoint x="321.5" y="2670" as="sourcePoint" />
            <mxPoint x="401.5" y="2580" as="targetPoint" />
          </mxGeometry>
        </mxCell>
        <mxCell id="GIqwlSmdAhQBk12k91S7-342" value="" style="endArrow=none;html=1;rounded=0;exitX=0.5;exitY=0;exitDx=0;exitDy=0;" edge="1" parent="1" source="GIqwlSmdAhQBk12k91S7-336">
          <mxGeometry width="50" height="50" relative="1" as="geometry">
            <mxPoint x="531.5" y="2620" as="sourcePoint" />
            <mxPoint x="401.5" y="2580" as="targetPoint" />
          </mxGeometry>
        </mxCell>
        <mxCell id="GIqwlSmdAhQBk12k91S7-343" value="" style="endArrow=none;html=1;rounded=0;exitX=0.5;exitY=0;exitDx=0;exitDy=0;" edge="1" parent="1" source="GIqwlSmdAhQBk12k91S7-337">
          <mxGeometry width="50" height="50" relative="1" as="geometry">
            <mxPoint x="493.5" y="2670" as="sourcePoint" />
            <mxPoint x="401.5" y="2580" as="targetPoint" />
          </mxGeometry>
        </mxCell>
        <mxCell id="GIqwlSmdAhQBk12k91S7-344" value="Writing" style="rhombus;whiteSpace=wrap;html=1;fontSize=14;fontStyle=1;strokeWidth=2;" vertex="1" parent="1">
          <mxGeometry x="701" y="2407" width="140" height="56" as="geometry" />
        </mxCell>
        <mxCell id="GIqwlSmdAhQBk12k91S7-345" value="" style="endArrow=classic;html=1;rounded=0;exitX=1;exitY=0.5;exitDx=0;exitDy=0;entryX=0.5;entryY=0;entryDx=0;entryDy=0;" edge="1" parent="1" source="GIqwlSmdAhQBk12k91S7-312" target="GIqwlSmdAhQBk12k91S7-344">
          <mxGeometry width="50" height="50" relative="1" as="geometry">
            <mxPoint x="511" y="2530" as="sourcePoint" />
            <mxPoint x="561" y="2480" as="targetPoint" />
            <Array as="points">
              <mxPoint x="771" y="2315" />
            </Array>
          </mxGeometry>
        </mxCell>
        <mxCell id="GIqwlSmdAhQBk12k91S7-348" value="id" style="edgeLabel;html=1;align=center;verticalAlign=middle;resizable=0;points=[];" vertex="1" connectable="0" parent="GIqwlSmdAhQBk12k91S7-345">
          <mxGeometry x="-0.2285" relative="1" as="geometry">
            <mxPoint y="-11" as="offset" />
          </mxGeometry>
        </mxCell>
        <mxCell id="GIqwlSmdAhQBk12k91S7-346" value="" style="endArrow=classic;html=1;rounded=0;entryX=0.5;entryY=1;entryDx=0;entryDy=0;exitX=0;exitY=0.5;exitDx=0;exitDy=0;" edge="1" parent="1" source="GIqwlSmdAhQBk12k91S7-353" target="GIqwlSmdAhQBk12k91S7-344">
          <mxGeometry width="50" height="50" relative="1" as="geometry">
            <mxPoint x="981" y="2555" as="sourcePoint" />
            <mxPoint x="783" y="2470" as="targetPoint" />
            <Array as="points">
              <mxPoint x="771" y="2555" />
            </Array>
          </mxGeometry>
        </mxCell>
        <mxCell id="GIqwlSmdAhQBk12k91S7-349" value="author" style="edgeLabel;html=1;align=center;verticalAlign=middle;resizable=0;points=[];" vertex="1" connectable="0" parent="GIqwlSmdAhQBk12k91S7-346">
          <mxGeometry x="-0.216" y="-3" relative="1" as="geometry">
            <mxPoint x="30" y="-15" as="offset" />
          </mxGeometry>
        </mxCell>
        <mxCell id="GIqwlSmdAhQBk12k91S7-350" value="1" style="text;html=1;align=center;verticalAlign=middle;resizable=0;points=[];autosize=1;strokeColor=none;fillColor=none;" vertex="1" parent="1">
          <mxGeometry x="785" y="2376" width="30" height="30" as="geometry" />
        </mxCell>
        <mxCell id="GIqwlSmdAhQBk12k91S7-351" value="n" style="text;html=1;align=center;verticalAlign=middle;resizable=0;points=[];autosize=1;strokeColor=none;fillColor=none;" vertex="1" parent="1">
          <mxGeometry x="785" y="2462" width="30" height="30" as="geometry" />
        </mxCell>
        <mxCell id="GIqwlSmdAhQBk12k91S7-352" value="1:1, 1:n, n:m" style="text;html=1;align=center;verticalAlign=middle;resizable=0;points=[];autosize=1;strokeColor=none;fillColor=none;" vertex="1" parent="1">
          <mxGeometry x="455" y="2170" width="90" height="30" as="geometry" />
        </mxCell>
        <mxCell id="GIqwlSmdAhQBk12k91S7-353" value="Notice" style="rounded=0;whiteSpace=wrap;html=1;fontSize=14;fontStyle=1;strokeWidth=2;" vertex="1" parent="1">
          <mxGeometry x="962" y="2530" width="131" height="50" as="geometry" />
        </mxCell>
        <mxCell id="GIqwlSmdAhQBk12k91S7-354" value="bno" style="ellipse;whiteSpace=wrap;html=1;fillColor=#008a00;fontColor=#ffffff;strokeColor=#005700;fontStyle=4" vertex="1" parent="1">
          <mxGeometry x="815" y="2660" width="80" height="30" as="geometry" />
        </mxCell>
        <mxCell id="GIqwlSmdAhQBk12k91S7-355" value="title" style="ellipse;whiteSpace=wrap;html=1;" vertex="1" parent="1">
          <mxGeometry x="903" y="2660" width="80" height="30" as="geometry" />
        </mxCell>
        <mxCell id="GIqwlSmdAhQBk12k91S7-356" value="content" style="ellipse;whiteSpace=wrap;html=1;" vertex="1" parent="1">
          <mxGeometry x="993" y="2660" width="70" height="30" as="geometry" />
        </mxCell>
        <mxCell id="GIqwlSmdAhQBk12k91S7-357" value="author" style="ellipse;whiteSpace=wrap;html=1;" vertex="1" parent="1">
          <mxGeometry x="1159" y="2660" width="80" height="30" as="geometry" />
        </mxCell>
        <mxCell id="GIqwlSmdAhQBk12k91S7-358" value="resdate" style="ellipse;whiteSpace=wrap;html=1;" vertex="1" parent="1">
          <mxGeometry x="1070" y="2660" width="80" height="30" as="geometry" />
        </mxCell>
        <mxCell id="GIqwlSmdAhQBk12k91S7-359" value="" style="endArrow=none;html=1;rounded=0;exitX=0.5;exitY=0;exitDx=0;exitDy=0;" edge="1" parent="1" source="GIqwlSmdAhQBk12k91S7-354">
          <mxGeometry width="50" height="50" relative="1" as="geometry">
            <mxPoint x="1158" y="2620" as="sourcePoint" />
            <mxPoint x="1028" y="2580" as="targetPoint" />
          </mxGeometry>
        </mxCell>
        <mxCell id="GIqwlSmdAhQBk12k91S7-360" value="" style="endArrow=none;html=1;rounded=0;exitX=0.5;exitY=0;exitDx=0;exitDy=0;" edge="1" parent="1" source="GIqwlSmdAhQBk12k91S7-355">
          <mxGeometry width="50" height="50" relative="1" as="geometry">
            <mxPoint x="857" y="2670" as="sourcePoint" />
            <mxPoint x="1028" y="2580" as="targetPoint" />
          </mxGeometry>
        </mxCell>
        <mxCell id="GIqwlSmdAhQBk12k91S7-361" value="" style="endArrow=none;html=1;rounded=0;exitX=0.5;exitY=0;exitDx=0;exitDy=0;" edge="1" parent="1" source="GIqwlSmdAhQBk12k91S7-358">
          <mxGeometry width="50" height="50" relative="1" as="geometry">
            <mxPoint x="948" y="2670" as="sourcePoint" />
            <mxPoint x="1028" y="2580" as="targetPoint" />
          </mxGeometry>
        </mxCell>
        <mxCell id="GIqwlSmdAhQBk12k91S7-362" value="" style="endArrow=none;html=1;rounded=0;exitX=0.5;exitY=0;exitDx=0;exitDy=0;" edge="1" parent="1" source="GIqwlSmdAhQBk12k91S7-356">
          <mxGeometry width="50" height="50" relative="1" as="geometry">
            <mxPoint x="1158" y="2620" as="sourcePoint" />
            <mxPoint x="1028" y="2580" as="targetPoint" />
          </mxGeometry>
        </mxCell>
        <mxCell id="GIqwlSmdAhQBk12k91S7-363" value="" style="endArrow=none;html=1;rounded=0;exitX=0.5;exitY=0;exitDx=0;exitDy=0;" edge="1" parent="1" source="GIqwlSmdAhQBk12k91S7-357">
          <mxGeometry width="50" height="50" relative="1" as="geometry">
            <mxPoint x="1120" y="2670" as="sourcePoint" />
            <mxPoint x="1028" y="2580" as="targetPoint" />
          </mxGeometry>
        </mxCell>
        <mxCell id="GIqwlSmdAhQBk12k91S7-365" value="qno" style="ellipse;whiteSpace=wrap;html=1;" vertex="1" parent="1">
          <mxGeometry x="621" y="2660" width="80" height="30" as="geometry" />
        </mxCell>
        <mxCell id="GIqwlSmdAhQBk12k91S7-366" value="lev" style="ellipse;whiteSpace=wrap;html=1;" vertex="1" parent="1">
          <mxGeometry x="101" y="2660" width="80" height="30" as="geometry" />
        </mxCell>
        <mxCell id="GIqwlSmdAhQBk12k91S7-367" value="" style="endArrow=none;html=1;rounded=0;exitX=0.5;exitY=0;exitDx=0;exitDy=0;entryX=0.5;entryY=1;entryDx=0;entryDy=0;" edge="1" parent="1" source="GIqwlSmdAhQBk12k91S7-366" target="GIqwlSmdAhQBk12k91S7-333">
          <mxGeometry width="50" height="50" relative="1" as="geometry">
            <mxPoint x="239" y="2670" as="sourcePoint" />
            <mxPoint x="411.5" y="2590" as="targetPoint" />
          </mxGeometry>
        </mxCell>
        <mxCell id="GIqwlSmdAhQBk12k91S7-369" value="" style="endArrow=none;html=1;rounded=0;exitX=0.5;exitY=0;exitDx=0;exitDy=0;entryX=0.5;entryY=1;entryDx=0;entryDy=0;" edge="1" parent="1" source="GIqwlSmdAhQBk12k91S7-365" target="GIqwlSmdAhQBk12k91S7-333">
          <mxGeometry width="50" height="50" relative="1" as="geometry">
            <mxPoint x="583" y="2670" as="sourcePoint" />
            <mxPoint x="411.5" y="2590" as="targetPoint" />
          </mxGeometry>
        </mxCell>
        <mxCell id="GIqwlSmdAhQBk12k91S7-370" value="Writing" style="rhombus;whiteSpace=wrap;html=1;fontSize=14;fontStyle=1;strokeWidth=2;" vertex="1" parent="1">
          <mxGeometry x="41" y="2407" width="140" height="56" as="geometry" />
        </mxCell>
        <mxCell id="GIqwlSmdAhQBk12k91S7-371" value="" style="endArrow=classic;html=1;rounded=0;exitX=0;exitY=0.5;exitDx=0;exitDy=0;entryX=0.5;entryY=1;entryDx=0;entryDy=0;" edge="1" parent="1" source="GIqwlSmdAhQBk12k91S7-333" target="GIqwlSmdAhQBk12k91S7-370">
          <mxGeometry width="50" height="50" relative="1" as="geometry">
            <mxPoint x="351" y="2580" as="sourcePoint" />
            <mxPoint x="401" y="2530" as="targetPoint" />
            <Array as="points">
              <mxPoint x="111" y="2555" />
            </Array>
          </mxGeometry>
        </mxCell>
        <mxCell id="GIqwlSmdAhQBk12k91S7-372" value="" style="endArrow=classic;html=1;rounded=0;exitX=0;exitY=0.5;exitDx=0;exitDy=0;entryX=0.5;entryY=0;entryDx=0;entryDy=0;" edge="1" parent="1" source="GIqwlSmdAhQBk12k91S7-312" target="GIqwlSmdAhQBk12k91S7-370">
          <mxGeometry width="50" height="50" relative="1" as="geometry">
            <mxPoint x="335" y="2382" as="sourcePoint" />
            <mxPoint x="110" y="2290" as="targetPoint" />
            <Array as="points">
              <mxPoint x="111" y="2315" />
            </Array>
          </mxGeometry>
        </mxCell>
        <mxCell id="GIqwlSmdAhQBk12k91S7-373" value="id" style="edgeLabel;html=1;align=center;verticalAlign=middle;resizable=0;points=[];" vertex="1" connectable="0" parent="1">
          <mxGeometry x="649.1790909090907" y="2314" as="geometry">
            <mxPoint x="-414" y="-11" as="offset" />
          </mxGeometry>
        </mxCell>
        <mxCell id="GIqwlSmdAhQBk12k91S7-374" value="n" style="text;html=1;align=center;verticalAlign=middle;resizable=0;points=[];autosize=1;strokeColor=none;fillColor=none;" vertex="1" parent="1">
          <mxGeometry x="41" y="2390" width="30" height="30" as="geometry" />
        </mxCell>
        <mxCell id="GIqwlSmdAhQBk12k91S7-375" value="m" style="text;html=1;align=center;verticalAlign=middle;resizable=0;points=[];autosize=1;strokeColor=none;fillColor=none;" vertex="1" parent="1">
          <mxGeometry x="41" y="2450" width="30" height="30" as="geometry" />
        </mxCell>
        <mxCell id="GIqwlSmdAhQBk12k91S7-376" value="author" style="edgeLabel;html=1;align=center;verticalAlign=middle;resizable=0;points=[];" vertex="1" connectable="0" parent="1">
          <mxGeometry x="855.0027272727275" y="2547" as="geometry">
            <mxPoint x="-678" y="-9" as="offset" />
          </mxGeometry>
        </mxCell>
        <mxCell id="GIqwlSmdAhQBk12k91S7-377" value="정보공학적 ERD" style="text;html=1;align=center;verticalAlign=middle;resizable=0;points=[];autosize=1;strokeColor=none;fillColor=none;" vertex="1" parent="1">
          <mxGeometry x="109.27000000000001" y="2130" width="110" height="30" as="geometry" />
        </mxCell>
        <mxCell id="GIqwlSmdAhQBk12k91S7-379" value="Member" style="swimlane;fontStyle=0;childLayout=stackLayout;horizontal=1;startSize=30;horizontalStack=0;resizeParent=1;resizeParentMax=0;resizeLast=0;collapsible=1;marginBottom=0;whiteSpace=wrap;html=1;" vertex="1" parent="1">
          <mxGeometry x="136.5" y="2840" width="140" height="120" as="geometry">
            <mxRectangle x="136.5" y="2840" width="80" height="30" as="alternateBounds" />
          </mxGeometry>
        </mxCell>
        <mxCell id="GIqwlSmdAhQBk12k91S7-380" value="+ id : String" style="text;strokeColor=none;fillColor=none;align=left;verticalAlign=middle;spacingLeft=4;spacingRight=4;overflow=hidden;points=[[0,0.5],[1,0.5]];portConstraint=eastwest;rotatable=0;whiteSpace=wrap;html=1;fontStyle=4" vertex="1" parent="GIqwlSmdAhQBk12k91S7-379">
          <mxGeometry y="30" width="140" height="30" as="geometry" />
        </mxCell>
        <mxCell id="GIqwlSmdAhQBk12k91S7-381" value="+ pw : String" style="text;strokeColor=none;fillColor=none;align=left;verticalAlign=middle;spacingLeft=4;spacingRight=4;overflow=hidden;points=[[0,0.5],[1,0.5]];portConstraint=eastwest;rotatable=0;whiteSpace=wrap;html=1;" vertex="1" parent="GIqwlSmdAhQBk12k91S7-379">
          <mxGeometry y="60" width="140" height="30" as="geometry" />
        </mxCell>
        <mxCell id="GIqwlSmdAhQBk12k91S7-382" value="+ name: String" style="text;strokeColor=none;fillColor=none;align=left;verticalAlign=middle;spacingLeft=4;spacingRight=4;overflow=hidden;points=[[0,0.5],[1,0.5]];portConstraint=eastwest;rotatable=0;whiteSpace=wrap;html=1;" vertex="1" parent="GIqwlSmdAhQBk12k91S7-379">
          <mxGeometry y="90" width="140" height="30" as="geometry" />
        </mxCell>
        <mxCell id="GIqwlSmdAhQBk12k91S7-402" value="Board" style="swimlane;fontStyle=1;align=center;verticalAlign=top;childLayout=stackLayout;horizontal=1;startSize=26;horizontalStack=0;resizeParent=1;resizeParentMax=0;resizeLast=0;collapsible=1;marginBottom=0;whiteSpace=wrap;html=1;" vertex="1" parent="1">
          <mxGeometry x="468.27" y="2840" width="160" height="86" as="geometry" />
        </mxCell>
        <mxCell id="GIqwlSmdAhQBk12k91S7-403" value="+ author : String" style="text;strokeColor=none;fillColor=none;align=left;verticalAlign=top;spacingLeft=4;spacingRight=4;overflow=hidden;rotatable=0;points=[[0,0.5],[1,0.5]];portConstraint=eastwest;whiteSpace=wrap;html=1;fontStyle=4" vertex="1" parent="GIqwlSmdAhQBk12k91S7-402">
          <mxGeometry y="26" width="160" height="26" as="geometry" />
        </mxCell>
        <mxCell id="GIqwlSmdAhQBk12k91S7-404" value="" style="line;strokeWidth=1;fillColor=none;align=left;verticalAlign=middle;spacingTop=-1;spacingLeft=3;spacingRight=3;rotatable=0;labelPosition=right;points=[];portConstraint=eastwest;strokeColor=inherit;" vertex="1" parent="GIqwlSmdAhQBk12k91S7-402">
          <mxGeometry y="52" width="160" height="8" as="geometry" />
        </mxCell>
        <mxCell id="GIqwlSmdAhQBk12k91S7-405" value="+ method(type): type" style="text;strokeColor=none;fillColor=none;align=left;verticalAlign=top;spacingLeft=4;spacingRight=4;overflow=hidden;rotatable=0;points=[[0,0.5],[1,0.5]];portConstraint=eastwest;whiteSpace=wrap;html=1;" vertex="1" parent="GIqwlSmdAhQBk12k91S7-402">
          <mxGeometry y="60" width="160" height="26" as="geometry" />
        </mxCell>
        <mxCell id="GIqwlSmdAhQBk12k91S7-407" value="" style="endArrow=none;html=1;rounded=0;exitX=1.006;exitY=0.759;exitDx=0;exitDy=0;exitPerimeter=0;entryX=0.008;entryY=0.876;entryDx=0;entryDy=0;entryPerimeter=0;" edge="1" parent="1">
          <mxGeometry width="50" height="50" relative="1" as="geometry">
            <mxPoint x="276.34000000000015" y="2913.77" as="sourcePoint" />
            <mxPoint x="468.54999999999995" y="2913.7760000000003" as="targetPoint" />
          </mxGeometry>
        </mxCell>
        <mxCell id="GIqwlSmdAhQBk12k91S7-408" value="1" style="text;html=1;align=center;verticalAlign=middle;resizable=0;points=[];autosize=1;strokeColor=none;fillColor=none;" vertex="1" parent="1">
          <mxGeometry x="295" y="2885" width="30" height="30" as="geometry" />
        </mxCell>
        <mxCell id="GIqwlSmdAhQBk12k91S7-410" value="n" style="text;html=1;align=center;verticalAlign=middle;resizable=0;points=[];autosize=1;strokeColor=none;fillColor=none;" vertex="1" parent="1">
          <mxGeometry x="425" y="2885" width="30" height="30" as="geometry" />
        </mxCell>
        <mxCell id="GIqwlSmdAhQBk12k91S7-411" value="DBC" style="swimlane;fontStyle=1;align=center;verticalAlign=top;childLayout=stackLayout;horizontal=1;startSize=26;horizontalStack=0;resizeParent=1;resizeParentMax=0;resizeLast=0;collapsible=1;marginBottom=0;whiteSpace=wrap;html=1;" vertex="1" parent="1">
          <mxGeometry x="310" y="3050" width="160" height="86" as="geometry" />
        </mxCell>
        <mxCell id="GIqwlSmdAhQBk12k91S7-412" value="+ field : type" style="text;strokeColor=none;fillColor=none;align=left;verticalAlign=top;spacingLeft=4;spacingRight=4;overflow=hidden;rotatable=0;points=[[0,0.5],[1,0.5]];portConstraint=eastwest;whiteSpace=wrap;html=1;fontStyle=0" vertex="1" parent="GIqwlSmdAhQBk12k91S7-411">
          <mxGeometry y="26" width="160" height="26" as="geometry" />
        </mxCell>
        <mxCell id="GIqwlSmdAhQBk12k91S7-413" value="" style="line;strokeWidth=1;fillColor=none;align=left;verticalAlign=middle;spacingTop=-1;spacingLeft=3;spacingRight=3;rotatable=0;labelPosition=right;points=[];portConstraint=eastwest;strokeColor=inherit;" vertex="1" parent="GIqwlSmdAhQBk12k91S7-411">
          <mxGeometry y="52" width="160" height="8" as="geometry" />
        </mxCell>
        <mxCell id="GIqwlSmdAhQBk12k91S7-414" value="+ method(type): type" style="text;strokeColor=none;fillColor=none;align=left;verticalAlign=top;spacingLeft=4;spacingRight=4;overflow=hidden;rotatable=0;points=[[0,0.5],[1,0.5]];portConstraint=eastwest;whiteSpace=wrap;html=1;" vertex="1" parent="GIqwlSmdAhQBk12k91S7-411">
          <mxGeometry y="60" width="160" height="26" as="geometry" />
        </mxCell>
        <mxCell id="GIqwlSmdAhQBk12k91S7-417" value="User Case Diagram" style="text;html=1;strokeColor=none;fillColor=none;align=center;verticalAlign=middle;whiteSpace=wrap;rounded=0;fontSize=33;fontStyle=1" vertex="1" parent="1">
          <mxGeometry x="80" y="20" width="310" height="40" as="geometry" />
        </mxCell>
      </root>
    </mxGraphModel>
  </diagram>
</mxfile>
